<svg version="1.1" id="Layer_1" xmlns="http://www.w3.org/2000/svg" xmlns:xlink="http://www.w3.org/1999/xlink" x="0px" y="0px"
	 width="100%" viewBox="0 0 1024 1024" enable-background="new 0 0 1024 1024" xml:space="preserve">
<path fill="#000000" opacity="1.000000" stroke="none" 
	d="
M156.192108,561.620972 
	C189.558075,567.895813 222.502350,574.090881 255.266388,581.216553 
	C269.862396,584.390991 284.621277,586.840820 299.063446,590.693359 
	C302.749481,591.676697 303.509460,589.770935 304.725067,587.132446 
	C315.965881,562.733521 322.943817,536.775879 332.450653,511.748413 
	C338.065643,496.966492 344.032471,482.318298 349.837311,467.608459 
	C350.439026,466.083618 351.413788,464.664520 351.226318,462.699615 
	C348.283966,460.356781 344.427887,460.515076 340.998566,459.545349 
	C334.138885,457.605530 329.416107,453.888855 328.223663,446.530182 
	C327.860016,444.286194 326.813629,442.756042 324.630402,441.578949 
	C297.666107,427.040436 281.548187,404.418488 277.983093,374.173828 
	C273.782135,338.534912 287.985779,303.193115 324.030487,284.779877 
	C327.222107,283.149445 328.692261,281.337952 328.749451,277.569519 
	C329.381744,235.926926 360.625458,198.848984 401.690491,191.933990 
	C410.492126,190.451904 415.457550,187.169067 420.187744,179.364075 
	C433.282532,157.757065 453.855103,145.554871 478.007050,139.780304 
	C511.312683,131.817169 542.347717,137.766617 570.676636,157.104721 
	C572.753906,158.522720 574.058228,158.419540 575.916382,157.003769 
	C595.475159,142.101135 617.888000,136.045654 642.034912,137.832031 
	C673.178528,140.136017 701.444519,149.512939 721.637024,175.455017 
	C722.557373,176.637405 723.804749,177.717499 724.286377,179.064545 
	C727.526306,188.127075 734.767883,190.153595 743.398560,191.894135 
	C781.013123,199.479889 807.673523,228.186111 813.535217,265.933014 
	C814.229797,270.406036 813.948486,274.891632 814.749695,279.326752 
	C815.205688,281.851074 816.259094,283.391022 818.680176,284.524658 
	C845.399536,297.035736 861.998718,317.819305 865.925049,347.025360 
	C870.752319,382.932648 860.553284,413.891663 831.332581,437.052582 
	C828.663940,439.167816 828.203003,441.492310 828.344910,444.418304 
	C829.169556,461.420013 827.504395,478.161072 820.144348,493.641144 
	C803.934998,527.733765 778.664185,550.974670 740.075317,556.357605 
	C707.030151,560.967346 676.947937,553.677063 651.270325,531.384949 
	C649.784241,530.094788 648.150879,528.974243 645.864441,527.221680 
	C646.311646,534.764709 648.325256,541.177612 649.700623,547.651855 
	C655.183228,573.459106 661.026855,599.189514 666.539307,624.990601 
	C667.523132,629.595459 669.664368,630.750671 674.330139,631.050476 
	C701.829346,632.817627 729.293640,631.013855 756.751770,630.476929 
	C780.181335,630.018677 803.582153,628.087769 826.995605,626.806702 
	C840.108948,626.089233 853.229248,625.476379 866.333008,624.612610 
	C875.446899,624.011902 884.504456,622.432190 893.667480,622.704590 
	C906.607422,623.089355 914.750549,630.212585 915.293335,641.598877 
	C915.562439,647.244446 915.545898,652.903992 914.197083,658.475281 
	C908.762390,680.923096 903.731750,703.507019 896.296753,725.386108 
	C883.926636,761.788025 868.730896,796.805908 844.343445,827.157532 
	C819.392212,858.210999 788.365112,878.958679 748.425903,885.139771 
	C732.573547,887.593079 716.575928,887.488037 700.624878,887.918640 
	C682.804504,888.399597 664.962402,888.033569 647.138062,888.419067 
	C572.495667,890.033691 497.846344,889.622986 423.203644,888.923340 
	C403.412628,888.737854 383.550262,889.327271 363.799072,887.319824 
	C348.699127,885.785095 334.037323,882.197998 319.643341,877.402710 
	C273.334656,861.974976 233.412674,836.659607 200.520172,800.493591 
	C184.178909,782.525940 171.661942,761.826843 158.720306,741.431885 
	C128.270432,693.445312 110.396530,640.542175 97.631271,585.630920 
	C96.241920,579.654541 94.386650,573.747742 94.678444,567.493347 
	C95.162659,557.114563 102.180649,551.022400 112.317245,552.873779 
	C126.845078,555.527222 141.285324,558.660217 156.192108,561.620972 
M311.288757,843.123596 
	C332.980713,853.005615 355.972687,857.201294 379.573883,858.711060 
	C406.361359,860.424744 433.204468,859.726685 460.018219,860.480347 
	C492.493042,861.393188 524.997803,861.577576 557.488220,861.500061 
	C586.471680,861.430969 615.453064,860.564697 644.435669,860.071106 
	C671.090698,859.617188 697.747375,859.251892 724.400269,858.698303 
	C729.375793,858.595032 734.359131,857.950928 739.300781,857.276917 
	C779.936646,851.734314 809.143921,828.844543 831.875122,796.154114 
	C845.528931,776.518188 853.730225,754.294067 862.229187,732.216553 
	C864.740417,725.693237 864.123108,724.601501 857.257812,725.325012 
	C839.560303,727.189941 821.874756,729.227356 804.237671,731.593018 
	C775.508118,735.446533 746.637390,737.603149 717.717163,739.095520 
	C684.598083,740.804504 651.424194,740.183289 618.278076,740.827026 
	C601.814880,741.146912 585.325073,739.682251 568.841370,739.454224 
	C545.168945,739.126709 521.598022,737.196228 498.066895,735.000427 
	C465.601105,731.970886 433.228760,728.055969 400.922638,723.534485 
	C350.963165,716.542175 301.416473,707.356812 252.153992,696.590149 
	C222.886826,690.193604 193.756653,683.202271 164.767456,675.627869 
	C162.557922,675.050537 160.162460,673.466980 157.668365,675.146179 
	C157.377121,678.348816 159.031113,680.762207 160.347000,683.195740 
	C168.189972,697.699890 176.049744,712.196106 184.049713,726.614075 
	C213.329758,779.383789 255.470596,818.178772 311.288757,843.123596 
M767.420166,513.906372 
	C786.237183,500.097870 796.678955,481.537628 798.746033,458.321259 
	C799.399475,450.982391 798.302917,450.229706 790.907898,451.794067 
	C786.213074,452.787262 781.749268,454.920410 776.757141,454.469238 
	C770.551392,453.908417 765.482666,449.191040 764.669617,443.044983 
	C763.755188,436.132751 766.585144,431.127045 772.946106,428.913086 
	C778.443665,426.999695 784.030334,425.401215 789.833496,424.564728 
	C795.796082,423.705200 801.374390,422.876770 806.833923,418.934387 
	C828.230530,403.483826 839.641785,383.576141 837.716553,356.771240 
	C836.612793,341.402466 830.864136,328.490234 818.292236,318.970642 
	C810.540649,313.100952 801.598022,310.090729 792.449707,307.440826 
	C785.539307,305.439148 783.506714,302.470917 784.637573,295.308807 
	C785.340698,290.855530 785.846191,286.414490 785.911682,281.914001 
	C786.321045,253.781525 768.813354,230.000839 741.906860,222.150528 
	C736.026428,220.434845 735.377441,220.954910 735.051453,227.137375 
	C734.692627,233.943161 733.981567,240.679779 732.737671,247.426010 
	C728.945007,267.995361 694.013611,302.263214 670.020081,306.461212 
	C657.378601,308.673035 645.519897,308.011963 634.433167,301.194305 
	C613.458679,288.296112 604.614624,260.108826 614.408630,236.605850 
	C619.617432,224.105988 628.444519,215.199356 642.065552,212.100052 
	C652.382812,209.752487 660.648010,217.225662 659.275024,227.440048 
	C658.476135,233.383041 653.893921,235.936035 649.157593,238.196106 
	C641.420776,241.887970 637.332336,248.199615 637.604553,256.511139 
	C637.891907,265.285828 640.656311,273.178802 649.461121,277.550781 
	C656.321960,280.957550 663.102478,280.492676 669.647522,277.302948 
	C689.991882,267.388214 703.108887,252.016846 705.838501,228.808365 
	C708.149719,209.156601 702.596680,192.571533 685.941162,181.352509 
	C670.245239,170.779907 652.498230,166.089890 633.402832,166.985168 
	C617.768494,167.718185 603.730286,172.521820 591.613098,182.600342 
	C589.080383,184.706940 587.359314,186.986877 587.302002,190.584671 
	C586.713257,227.559570 585.843506,264.530579 585.380615,301.506744 
	C585.059509,327.160095 585.204163,352.817749 586.165833,378.466888 
	C586.759155,394.291687 585.963684,410.115540 585.241760,425.921051 
	C585.036438,430.416412 586.629089,432.149323 590.924500,432.693756 
	C601.311584,434.010193 610.233276,438.628418 618.056702,445.507507 
	C627.517517,453.826477 632.185730,464.607147 634.459717,476.721252 
	C635.030273,479.760376 634.611816,483.643158 639.319519,484.277557 
	C646.908203,485.300140 654.437622,486.036652 662.158081,485.293488 
	C671.520691,484.392273 679.605896,480.247040 688.056458,476.768616 
	C694.928467,473.939941 703.029114,477.403870 706.024048,483.515900 
	C709.069153,489.730286 706.759460,496.786957 700.052124,501.168182 
	C694.867126,504.554993 689.229126,507.021271 683.305847,508.859314 
	C681.497803,509.420288 678.888000,509.313416 678.661011,511.883728 
	C678.449585,514.277222 680.844116,515.050415 682.457520,516.075012 
	C705.231323,530.537292 742.085938,532.958374 767.420166,513.906372 
M355.506683,306.236603 
	C347.179352,309.116150 338.708527,311.541901 330.932678,315.922333 
	C308.776703,328.403656 301.963959,359.333862 308.884827,381.059662 
	C316.010193,403.427338 332.209290,416.911346 353.491058,424.987488 
	C357.937469,426.674835 362.275146,428.166351 364.617310,432.740295 
	C365.646362,434.749908 367.456390,434.793427 369.369476,434.468353 
	C382.704071,432.202423 396.170105,431.727905 409.650574,431.713745 
	C456.310364,431.664703 502.970398,431.657501 549.629883,431.787201 
	C553.983337,431.799286 555.799072,430.684479 556.062195,426.016693 
	C557.329407,403.536224 556.747009,381.046906 556.861877,358.560638 
	C556.878113,355.380249 555.607605,354.126862 552.417175,354.082581 
	C547.764282,354.017975 543.113403,353.621246 538.467468,353.285828 
	C528.956482,352.599182 519.590088,351.170044 510.910675,346.941589 
	C502.793488,342.987000 495.850433,337.631104 491.915894,329.225037 
	C488.409058,321.732849 490.910065,313.451965 497.442505,310.073761 
	C504.151794,306.604156 511.289032,308.930298 515.637573,316.266388 
	C518.204712,320.597290 522.230774,322.735352 526.640381,324.406006 
	C532.832764,326.752167 539.325378,327.000824 545.838684,326.795013 
	C557.002625,326.442261 556.344604,328.911896 556.436829,316.128326 
	C556.719238,276.977509 557.575073,237.834930 558.997375,198.725510 
	C559.424927,186.970627 554.666138,180.789764 545.255188,176.250107 
	C544.805603,176.033249 544.377991,175.770813 543.941650,175.526871 
	C525.391968,165.156143 505.517578,165.891220 485.558380,169.089218 
	C469.395447,171.678970 455.935150,180.415558 445.944519,192.663651 
	C433.668121,207.714020 433.401733,225.969864 438.821716,243.917038 
	C441.645569,253.267731 453.174164,260.130829 461.812927,259.556030 
	C473.701691,258.765045 480.826691,252.385971 483.925751,240.093262 
	C485.177063,235.129776 484.520264,230.150803 484.643463,225.180771 
	C484.839142,217.286514 488.806305,212.161102 495.945435,210.922607 
	C502.210052,209.835815 508.621674,213.888412 510.989166,220.661209 
	C513.001465,226.417908 513.067078,232.353241 512.371765,238.384247 
	C509.895416,259.865234 498.916718,275.174103 479.301971,284.233246 
	C458.048004,294.049469 424.557983,280.172455 413.894226,256.900269 
	C409.341400,246.964294 407.734161,236.587250 407.825012,225.839294 
	C407.856506,222.112854 406.461151,220.210037 402.778900,221.598053 
	C389.521088,226.595459 377.187347,232.989120 369.108704,245.366806 
	C359.166931,260.599060 355.536499,276.985046 359.833862,294.906006 
	C360.862061,299.193817 360.407257,303.232819 355.506683,306.236603 
M263.454529,613.272522 
	C221.413574,604.927490 179.378693,596.551697 137.325867,588.267090 
	C130.081894,586.839905 128.075943,589.069824 130.193375,596.338318 
	C133.821732,608.793457 138.051590,621.080872 141.400497,633.606628 
	C142.993988,639.566711 146.231323,641.954102 152.033234,643.390747 
	C198.662064,654.936951 245.333176,666.274048 292.424622,675.814331 
	C338.657928,685.180786 385.173218,692.752014 431.945221,698.934387 
	C462.926178,703.029419 493.945343,706.750732 525.121521,708.468506 
	C557.029846,710.226624 589.006348,710.870605 620.962097,711.610657 
	C653.280396,712.359131 685.561462,710.249023 717.858948,709.482239 
	C725.979797,709.289429 734.154419,709.011108 742.288147,708.458252 
	C763.021423,707.048950 783.690796,704.983582 804.362549,702.846313 
	C826.351379,700.572815 848.358154,698.495117 870.311707,695.875000 
	C873.654663,695.476074 875.278992,694.360107 876.064209,691.017029 
	C878.497375,680.657898 881.310242,670.388672 883.842041,660.051819 
	C885.465271,653.424683 884.927002,652.817139 878.077942,653.167053 
	C852.491272,654.473816 826.916016,656.046082 801.319458,657.106445 
	C777.205872,658.105347 753.073242,659.040344 728.944519,659.169800 
	C702.471130,659.311829 676.000732,659.536804 649.505676,658.555176 
	C615.922913,657.310730 582.375854,655.781189 548.852417,653.449402 
	C523.481689,651.684753 498.189850,649.230164 472.907776,646.502991 
	C440.857117,643.045654 408.918701,638.748108 377.037445,634.071289 
	C339.220703,628.523804 301.789734,620.761658 263.454529,613.272522 
M608.418640,494.935028 
	C607.506226,490.543427 606.462769,486.174255 605.706055,481.756012 
	C603.454224,468.608978 598.377808,463.458527 585.364685,461.646912 
	C582.745972,461.282349 580.039978,461.341858 577.386169,461.464417 
	C557.409851,462.386780 537.419800,462.282257 517.436218,462.124786 
	C474.309692,461.785034 431.188507,460.473267 388.054291,462.036011 
	C382.861847,462.224121 380.889465,464.367096 379.317810,468.797852 
	C371.809052,489.966400 364.017090,511.034393 356.362244,532.151306 
	C349.047058,552.331055 341.859772,572.557800 334.420654,592.691589 
	C332.820129,597.023376 333.855408,598.607849 338.360809,599.177856 
	C345.445557,600.074219 352.449921,601.585571 359.512573,602.679932 
	C390.400391,607.466370 421.330780,611.942078 452.332703,615.950928 
	C480.883118,619.642700 509.537598,622.328979 538.221008,624.452332 
	C569.079956,626.736633 600.024536,627.867188 630.932190,629.491577 
	C636.092590,629.762756 637.171692,628.528625 636.070862,623.407715 
	C626.923889,580.858093 617.750854,538.314148 608.418640,494.935028 
z"/>
<path fill="#000000" opacity="1.000000" stroke="none" 
	d="
M715.805908,371.855225 
	C723.546387,355.101440 725.692810,338.191406 720.950012,320.536743 
	C718.807617,312.562073 721.359131,307.059174 727.875671,304.497253 
	C734.382935,301.938934 740.878723,304.440948 744.693726,311.273804 
	C749.979065,320.740143 750.412048,331.282410 751.053650,341.749237 
	C751.134277,343.065063 751.064697,344.390137 751.064697,346.117676 
	C755.932800,347.671143 760.843872,349.115692 765.668091,350.807800 
	C772.152832,353.082306 778.409119,355.896118 783.057922,361.193695 
	C790.170471,369.298859 786.458130,381.474976 776.280029,383.791656 
	C772.383362,384.678619 769.046875,383.349152 766.006287,381.111542 
	C761.248474,377.610199 755.921204,376.253235 750.075439,376.299286 
	C745.942444,376.331848 743.388306,377.959839 741.643250,381.886505 
	C731.989563,403.609253 717.510071,421.230835 696.823975,433.373505 
	C688.828247,438.066986 680.206787,440.941986 670.931458,441.785065 
	C663.697998,442.442535 658.653198,439.023254 656.735657,432.055237 
	C654.939941,425.529999 657.867615,419.514740 664.374207,416.621094 
	C670.738892,413.790558 677.746948,412.537262 683.637390,408.509491 
	C697.391296,399.104828 708.045837,387.003662 715.805908,371.855225 
z"/>
<path fill="#000000" opacity="1.000000" stroke="none" 
	d="
M635.146912,387.244263 
	C629.026917,391.861450 623.924377,392.306854 618.827026,388.932007 
	C613.697083,385.535614 611.401611,378.850830 613.041809,372.108124 
	C614.140015,367.593414 616.567444,363.775299 619.932190,360.750092 
	C634.410400,347.732697 651.192261,343.187317 670.234924,347.725189 
	C674.337341,348.702789 678.000610,350.666107 680.861633,353.888519 
	C684.710876,358.223877 685.263977,363.673096 682.375732,368.643921 
	C679.531982,373.538177 674.407166,375.950226 668.853088,374.654480 
	C663.783020,373.471649 658.699158,372.814331 653.547668,373.583374 
	C645.180054,374.832520 639.425110,379.765686 635.146912,387.244263 
z"/>
<path fill="#000000" opacity="1.000000" stroke="none" 
	d="
M454.377106,371.624207 
	C465.832642,380.778473 477.697357,387.451508 492.896637,385.800934 
	C500.994049,384.921600 506.385925,389.708923 507.613647,397.430939 
	C508.652496,403.964935 504.195068,409.816742 496.541290,411.658173 
	C479.173584,415.836670 463.661133,410.607452 448.991150,401.834991 
	C442.705658,398.076355 436.981262,393.511383 431.525970,388.565491 
	C418.512451,376.767151 403.463654,374.394836 387.045105,379.851959 
	C383.753387,380.946045 380.717407,382.804260 377.552887,384.287476 
	C370.956268,387.379272 363.414642,385.507477 359.928192,379.928528 
	C356.070038,373.754700 357.554840,365.824219 363.579437,361.192017 
	C367.702606,358.021851 372.437897,355.887817 377.221130,353.959656 
	C384.326691,351.095367 391.530151,348.516846 399.370148,348.542786 
	C402.617523,348.553497 403.713989,347.068420 402.895905,343.736694 
	C401.474274,337.946960 399.637543,332.204865 399.654510,326.147217 
	C399.672882,319.572510 403.226410,314.879303 409.307739,313.301208 
	C414.810638,311.873199 420.208984,314.572784 423.146942,320.508514 
	C424.692261,323.630615 426.132019,326.864288 427.112061,330.196808 
	C431.958649,346.677582 441.388031,360.102051 454.377106,371.624207 
z"/>
<path fill="#000000" opacity="1.000000" stroke="none" 
	d="
M550.336548,546.000122 
	C550.335815,557.332520 550.379028,568.165100 550.321899,578.997192 
	C550.256287,591.429077 541.316284,600.338562 528.870789,600.345825 
	C488.207703,600.369629 447.544586,600.362671 406.881500,600.344482 
	C393.698944,600.338562 385.326904,591.977661 384.597534,578.702881 
	C384.186035,571.213623 385.879730,564.148804 387.939575,557.134766 
	C392.064056,543.090698 396.312836,529.081421 400.678680,515.110474 
	C404.690826,502.271362 411.128357,497.659576 424.489319,497.658722 
	C459.486237,497.656433 494.483185,497.649261 529.480103,497.659302 
	C542.398865,497.663025 550.288940,505.560699 550.323120,518.502319 
	C550.346924,527.501526 550.333130,536.500793 550.336548,546.000122 
M471.499939,574.662659 
	C487.486786,574.660278 503.474487,574.570374 519.459900,574.719360 
	C523.286499,574.755005 524.800842,573.600342 524.746094,569.599487 
	C524.561218,556.113098 524.521301,542.620178 524.750549,529.135315 
	C524.820923,524.998352 523.145142,524.038879 519.457825,524.045959 
	C489.149933,524.104553 458.841614,524.104919 428.534149,523.963013 
	C424.623444,523.944702 422.930542,525.522461 421.966309,529.128784 
	C418.275085,542.934143 414.357300,556.678955 410.563293,570.457153 
	C410.262848,571.548279 409.983063,572.738464 411.280762,574.662109 
	C430.652740,574.662109 450.576324,574.662109 471.499939,574.662659 
z"/>
</svg>